<svg width="637" height="299" viewBox="0 0 637 299" fill="none" xmlns="http://www.w3.org/2000/svg">
<path d="M30.2943 173.446C26.7574 174.573 23.4821 174.855 20.4683 174.293C17.4546 173.731 14.8667 172.429 12.7048 170.386C10.5714 168.29 8.99581 165.524 7.9781 162.088L0 135.148L8.35437 132.487L16.3325 159.426C16.8777 161.267 17.7221 162.767 18.8658 163.924C20.0381 165.028 21.404 165.735 22.9637 166.044C24.564 166.34 26.2788 166.197 28.1083 165.614C29.9377 165.031 31.4142 164.158 32.5377 162.994C33.7018 161.818 34.4499 160.438 34.7818 158.855C35.1423 157.218 35.05 155.479 34.5048 153.638L26.5267 126.698L34.881 124.037L42.8591 150.976C43.8768 154.413 44.0295 157.632 43.3171 160.635C42.6333 163.584 41.1761 166.175 38.9455 168.407C36.7556 170.627 33.8719 172.307 30.2943 173.446Z" fill="black"/>
<path d="M53.7223 165.343L42.6952 121.921L57.3271 117.924C60.2905 117.115 62.9991 116.862 65.4527 117.164C67.9063 117.467 69.9868 118.38 71.6941 119.904C73.391 121.386 74.586 123.492 75.2791 126.221C75.7097 127.917 75.6766 129.606 75.1799 131.29C74.7138 132.921 73.8505 134.461 72.5902 135.911C74.8695 136.394 76.7648 137.357 78.276 138.802C79.8179 140.194 80.8934 142.089 81.5025 144.488C82.1746 147.134 82.1502 149.551 81.4292 151.738C80.7082 153.925 79.3983 155.787 77.4996 157.322C75.6009 158.858 73.211 160.019 70.3299 160.806L53.7223 165.343ZM60.0891 155.577L67.6212 153.52C69.6379 152.969 71.0965 152.04 71.9969 150.733C72.8868 149.384 73.1165 147.862 72.6859 146.166C72.2343 144.388 71.2445 143.177 69.7166 142.533C68.1781 141.848 66.2976 141.809 64.075 142.416L57.2221 144.288L60.0891 155.577ZM55.4577 137.34L62.002 135.553C63.8541 135.047 65.1945 134.172 66.023 132.929C66.8516 131.685 67.0454 130.195 66.6043 128.458C66.1632 126.721 65.2251 125.54 63.7899 124.915C62.3548 124.29 60.6082 124.259 58.5503 124.821L52.6852 126.423L55.4577 137.34Z" fill="black"/>
<path d="M109.121 152.057C104.878 153.026 100.91 152.925 97.2161 151.755C93.5137 150.544 90.3678 148.461 87.7785 145.508C85.1803 142.513 83.4117 138.803 82.4728 134.379C81.5339 129.955 81.6417 125.839 82.7961 122.031C83.9416 118.181 85.9329 114.926 88.77 112.265C91.6398 109.554 95.1961 107.713 99.439 106.745C102.434 106.061 105.336 105.968 108.145 106.464C110.946 106.919 113.506 107.888 115.827 109.371C118.181 110.803 120.139 112.631 121.702 114.856L114.402 119.608C113.367 118.225 112.148 117.103 110.744 116.242C109.331 115.339 107.81 114.745 106.179 114.461C104.54 114.135 102.847 114.172 101.1 114.571C98.5624 115.15 96.4327 116.314 94.7106 118.064C93.0213 119.762 91.8498 121.846 91.1962 124.314C90.5841 126.773 90.5881 129.463 91.2081 132.385C91.8282 135.306 92.9389 137.766 94.5403 139.763C96.1329 141.719 98.0648 143.116 100.336 143.954C102.598 144.75 105.019 144.854 107.598 144.265C109.387 143.857 110.938 143.153 112.252 142.153C113.599 141.101 114.706 139.842 115.572 138.376C116.48 136.899 117.119 135.288 117.49 133.54L126.025 134.611C125.525 137.394 124.506 139.99 122.967 142.398C121.47 144.796 119.547 146.833 117.199 148.506C114.85 150.18 112.157 151.364 109.121 152.057Z" fill="black"/>
<path d="M163.776 141.511C161.545 141.881 159.419 141.952 157.398 141.725C155.378 141.498 153.535 141.025 151.87 140.306C150.199 139.545 148.764 138.637 147.565 137.582C146.409 136.519 145.579 135.338 145.076 134.037L153.147 130.105C153.915 131.448 155.075 132.531 156.627 133.355C158.172 134.137 160 134.374 162.111 134.068C164.348 133.74 166.083 132.955 167.317 131.713C168.592 130.464 169.106 129.038 168.859 127.435C168.644 126.044 167.898 124.978 166.618 124.239C165.374 123.451 163.745 122.964 161.731 122.779L155.751 122.213C153.52 122.021 151.499 121.512 149.689 120.688C147.872 119.822 146.373 118.643 145.194 117.152C144.015 115.661 143.256 113.819 142.918 111.626C142.275 107.451 143.142 103.977 145.521 101.205C147.935 98.3827 151.668 96.5531 156.719 95.7158C159.539 95.2483 162.066 95.2619 164.301 95.7564C166.571 96.2018 168.539 97.0649 170.204 98.3457C171.869 99.6266 173.239 101.237 174.315 103.178L166.318 107.163C165.592 105.813 164.477 104.744 162.974 103.955C161.471 103.166 159.689 102.943 157.626 103.285C155.521 103.634 153.934 104.394 152.862 105.566C151.833 106.732 151.455 108.2 151.728 109.971C151.943 111.363 152.574 112.382 153.624 113.03C154.716 113.671 156.115 114.066 157.821 114.215L163.854 114.707C167.785 115.007 170.989 116.184 173.464 118.239C175.939 120.294 177.404 122.797 177.858 125.749C178.261 128.364 177.984 130.766 177.027 132.958C176.063 135.107 174.466 136.928 172.236 138.422C170.005 139.916 167.185 140.946 163.776 141.511Z" fill="black"/>
<path d="M204.419 135.802C200.1 136.333 196.156 135.829 192.587 134.291C189.014 132.71 186.078 130.32 183.78 127.12C181.477 123.879 180.069 120.011 179.555 115.518C179.041 111.024 179.541 106.944 181.054 103.276C182.562 99.5652 184.857 96.532 187.937 94.1758C191.055 91.7721 194.773 90.3046 199.093 89.7734C202.142 89.3985 205.042 89.6007 207.794 90.3799C210.54 91.1168 212.999 92.3405 215.17 94.0509C217.378 95.7137 219.155 97.7306 220.5 100.101L212.774 104.082C211.875 102.602 210.767 101.363 209.45 100.364C208.129 99.3229 206.67 98.5781 205.072 98.1297C203.47 97.639 201.78 97.5029 200.001 97.7217C197.418 98.0393 195.185 98.9802 193.303 100.544C191.458 102.061 190.092 104.013 189.206 106.4C188.361 108.782 188.109 111.457 188.448 114.424C188.787 117.391 189.66 119.949 191.065 122.098C192.465 124.204 194.256 125.789 196.439 126.853C198.618 127.875 201.019 128.224 203.645 127.901C205.466 127.678 207.079 127.135 208.483 126.275C209.925 125.367 211.148 124.228 212.151 122.858C213.196 121.483 213.986 119.945 214.522 118.246L222.924 120.179C222.161 122.895 220.898 125.371 219.135 127.609C217.415 129.84 215.305 131.669 212.806 133.094C210.306 134.519 207.511 135.422 204.419 135.802Z" fill="black"/>
<path d="M227.571 132.589L223.86 87.9425L232.593 87.1618L236.304 131.808L227.571 132.589Z" fill="black"/>
<path d="M247.225 130.905L244.731 86.1742L273.033 84.4774L273.478 92.465L253.929 93.6371L254.495 103.797L271.361 102.786L271.795 110.582L254.93 111.593L255.532 122.392L275.336 121.205L275.781 129.193L247.225 130.905Z" fill="black"/>
<path d="M282.636 128.954L281.925 84.1592L291.076 84.0032L313.438 113.706L312.961 83.63L321.664 83.4817L322.374 128.276L313.671 128.424L290.916 98.1519L291.402 128.804L282.636 128.954Z" fill="black"/>
<path d="M347.84 129.876C343.49 129.746 339.657 128.651 336.342 126.588C333.028 124.484 330.46 121.675 328.636 118.164C326.813 114.609 325.965 110.572 326.09 106.051C326.215 101.53 327.284 97.5705 329.299 94.1729C331.315 90.7326 334.013 88.081 337.394 86.218C340.819 84.3136 344.706 83.4261 349.056 83.5554C352.127 83.6467 354.969 84.2861 357.582 85.4737C360.197 86.6186 362.458 88.2011 364.366 90.2214C366.317 92.2002 367.791 94.4637 368.788 97.0118L360.58 99.7771C359.899 98.1774 358.977 96.7841 357.815 95.597C356.653 94.3673 355.314 93.4097 353.796 92.7243C352.28 91.9963 350.626 91.6056 348.835 91.5524C346.233 91.475 343.891 92.067 341.807 93.3283C339.767 94.5482 338.14 96.2713 336.927 98.4975C335.755 100.725 335.128 103.332 335.046 106.317C334.963 109.303 335.466 111.964 336.554 114.301C337.643 116.596 339.192 118.435 341.203 119.818C343.215 121.158 345.543 121.868 348.187 121.946C350.021 122.001 351.693 121.709 353.205 121.071C354.76 120.392 356.131 119.451 357.316 118.248C358.545 117.047 359.544 115.647 360.314 114.047L368.357 117.232C367.219 119.802 365.62 122.059 363.56 124.004C361.543 125.951 359.197 127.439 356.522 128.469C353.847 129.499 350.953 129.968 347.84 129.876Z" fill="black"/>
<path d="M371.077 130.163L374.043 85.461L402.323 87.4793L401.794 95.4617L382.26 94.0676L381.586 104.221L398.439 105.424L397.922 113.215L381.069 112.012L380.353 122.804L400.143 124.217L399.613 132.199L371.077 130.163Z" fill="black"/>
<path d="M423.673 134.69L429.269 90.2413L438.719 91.5208L449.243 112.449L464.594 95.0244L473.981 96.2953L468.385 140.745L459.76 139.577L463.645 108.716L447.404 127.054L436.239 105.07L432.362 135.867L423.673 134.69Z" fill="black"/>
<path d="M472.857 141.842L480.311 97.6665L508.207 102.729L506.876 110.618L487.607 107.121L485.914 117.155L502.538 120.172L501.239 127.871L484.615 124.854L482.815 135.519L502.336 139.062L501.005 146.951L472.857 141.842Z" fill="black"/>
<path d="M507.78 148.445L516.849 104.572L533.092 108.183C536.174 108.868 538.777 110.081 540.9 111.82C543.024 113.56 544.532 115.643 545.424 118.071C546.325 120.456 546.487 123.049 545.908 125.848C545.338 128.606 544.12 130.914 542.255 132.771C540.44 134.597 538.2 135.847 535.534 136.522C532.876 137.154 530.006 137.128 526.924 136.443L519.552 134.804L516.339 150.347L507.78 148.445ZM531.833 153.792L525.352 133.93L532.884 130.688L541.517 155.945L531.833 153.792ZM521.172 126.97L528.918 128.692C530.209 128.979 531.411 128.962 532.523 128.641C533.676 128.329 534.644 127.758 535.426 126.926C536.249 126.104 536.786 125.087 537.036 123.876C537.425 121.995 537.053 120.318 535.92 118.842C534.829 117.376 533.222 116.407 531.098 115.934L523.788 114.309L521.172 126.97Z" fill="black"/>
<path d="M564.573 163.02C560.369 161.894 556.877 159.942 554.095 157.165C551.325 154.346 549.43 151.012 548.411 147.161C547.402 143.269 547.445 139.129 548.538 134.741C549.632 130.352 551.523 126.73 554.214 123.873C556.914 120.976 560.109 119.005 563.798 117.962C567.539 116.889 571.511 116.916 575.714 118.043C578.682 118.838 581.309 120.116 583.596 121.877C585.893 123.597 587.752 125.664 589.173 128.076C590.646 130.458 591.593 133.009 592.015 135.728L583.437 136.542C583.118 134.822 582.521 133.249 581.645 131.822C580.78 130.353 579.683 129.11 578.354 128.091C577.036 127.031 575.511 126.269 573.78 125.805C571.266 125.131 568.86 125.171 566.562 125.924C564.316 126.647 562.363 127.957 560.703 129.853C559.085 131.76 557.915 134.162 557.193 137.06C556.47 139.958 556.387 142.674 556.943 145.208C557.509 147.701 558.621 149.854 560.279 151.667C561.948 153.44 564.06 154.668 566.615 155.353C568.387 155.828 570.077 155.928 571.685 155.652C573.344 155.346 574.879 154.741 576.291 153.839C577.744 152.948 579.017 151.809 580.109 150.424L587.249 155.385C585.589 157.634 583.548 159.472 581.126 160.899C578.746 162.336 576.144 163.251 573.32 163.643C570.497 164.034 567.581 163.827 564.573 163.02Z" fill="black"/>
<path d="M615.273 177.564L627.959 134.598L636.316 137.252L623.629 180.218L615.273 177.564ZM587.153 168.634L599.857 125.606L608.214 128.26L595.509 171.288L587.153 168.634ZM598.721 152.503L601.004 144.769L626.867 152.982L624.584 160.716L598.721 152.503Z" fill="black"/>
<path d="M7.51769 253.48V225.48H11.3177V249.76L11.1177 253.48H7.51769ZM17.8777 253.96C16.1977 253.96 14.731 253.52 13.4777 252.64C12.251 251.76 11.3044 250.533 10.6377 248.96C9.97102 247.387 9.63769 245.56 9.63769 243.48C9.63769 241.373 9.97102 239.547 10.6377 238C11.3044 236.427 12.251 235.2 13.4777 234.32C14.731 233.44 16.1977 233 17.8777 233C19.6644 233 21.2377 233.44 22.5977 234.32C23.9577 235.2 25.011 236.427 25.7577 238C26.531 239.547 26.9177 241.373 26.9177 243.48C26.9177 245.56 26.531 247.387 25.7577 248.96C25.011 250.533 23.9577 251.76 22.5977 252.64C21.2377 253.52 19.6644 253.96 17.8777 253.96ZM16.9577 250.52C18.1577 250.52 19.211 250.227 20.1177 249.64C21.0244 249.027 21.731 248.2 22.2377 247.16C22.771 246.093 23.0377 244.867 23.0377 243.48C23.0377 242.093 22.7844 240.88 22.2777 239.84C21.771 238.773 21.0644 237.947 20.1577 237.36C19.251 236.747 18.1977 236.44 16.9977 236.44C15.9044 236.44 14.9177 236.747 14.0377 237.36C13.1844 237.947 12.5177 238.773 12.0377 239.84C11.5577 240.907 11.3177 242.12 11.3177 243.48C11.3177 244.867 11.5577 246.093 12.0377 247.16C12.5177 248.2 13.1844 249.027 14.0377 249.64C14.891 250.227 15.8644 250.52 16.9577 250.52Z" fill="black"/>
<path d="M32.8874 261.96C32.3007 261.96 31.6474 261.853 30.9274 261.64C30.234 261.427 29.514 261.147 28.7674 260.8L30.1674 257.68C30.754 257.947 31.2607 258.147 31.6874 258.28C32.1407 258.413 32.5007 258.48 32.7674 258.48C33.434 258.48 33.994 258.293 34.4474 257.92C34.9274 257.547 35.314 257.027 35.6074 256.36L37.9274 250.88L45.0474 233.48H49.1274L39.6474 255.96C39.1407 257.187 38.6074 258.253 38.0474 259.16C37.4874 260.067 36.794 260.76 35.9674 261.24C35.1674 261.72 34.1407 261.96 32.8874 261.96ZM36.8874 253.48L28.1274 233.48H32.1674L39.4074 250.84L40.5674 253.48H36.8874Z" fill="black"/>
<path d="M71.7746 253.96C70.2812 253.96 68.9212 253.787 67.6946 253.44C66.4946 253.093 65.4412 252.627 64.5346 252.04C63.6546 251.427 62.9212 250.747 62.3346 250C61.7479 249.253 61.3346 248.467 61.0946 247.64L64.8946 246.4C65.2946 247.493 66.0546 248.44 67.1746 249.24C68.2946 250.04 69.6679 250.453 71.2946 250.48C73.2679 250.48 74.8146 250.093 75.9346 249.32C77.0812 248.52 77.6546 247.467 77.6546 246.16C77.6546 244.96 77.1612 243.987 76.1746 243.24C75.1879 242.467 73.8812 241.88 72.2546 241.48L69.0146 240.64C67.7346 240.293 66.5612 239.8 65.4946 239.16C64.4546 238.52 63.6279 237.707 63.0146 236.72C62.4012 235.733 62.0946 234.547 62.0946 233.16C62.0946 230.6 62.9212 228.6 64.5746 227.16C66.2546 225.72 68.6679 225 71.8146 225C73.6279 225 75.2012 225.293 76.5346 225.88C77.8679 226.44 78.9612 227.187 79.8146 228.12C80.6946 229.053 81.3212 230.08 81.6946 231.2L77.8946 232.48C77.4412 231.28 76.6679 230.32 75.5746 229.6C74.4812 228.853 73.1346 228.48 71.5346 228.48C69.8546 228.48 68.5212 228.88 67.5346 229.68C66.5746 230.48 66.0946 231.573 66.0946 232.96C66.0946 234.133 66.4679 235.04 67.2146 235.68C67.9879 236.293 69.0146 236.76 70.2946 237.08L73.5346 237.88C76.1479 238.52 78.1612 239.587 79.5746 241.08C81.0146 242.547 81.7346 244.16 81.7346 245.92C81.7346 247.44 81.3479 248.813 80.5746 250.04C79.8279 251.24 78.7079 252.2 77.2146 252.92C75.7479 253.613 73.9346 253.96 71.7746 253.96Z" fill="black"/>
<path d="M95.4268 253.96C93.4268 253.96 91.6534 253.52 90.1068 252.64C88.5601 251.733 87.3468 250.493 86.4668 248.92C85.6134 247.347 85.1868 245.533 85.1868 243.48C85.1868 241.427 85.6134 239.613 86.4668 238.04C87.3468 236.467 88.5467 235.24 90.0667 234.36C91.6134 233.453 93.3734 233 95.3467 233C97.2934 233 99.0401 233.453 100.587 234.36C102.16 235.267 103.333 236.56 104.107 238.24L100.667 239.68C100.16 238.693 99.4268 237.92 98.4668 237.36C97.5334 236.8 96.4534 236.52 95.2268 236.52C94.0268 236.52 92.9601 236.813 92.0267 237.4C91.0934 237.987 90.3601 238.813 89.8268 239.88C89.2934 240.92 89.0267 242.12 89.0267 243.48C89.0267 244.84 89.2934 246.04 89.8268 247.08C90.3601 248.12 91.1067 248.947 92.0667 249.56C93.0267 250.147 94.1067 250.44 95.3067 250.44C96.5334 250.44 97.6268 250.133 98.5868 249.52C99.5468 248.88 100.267 248.027 100.747 246.96L104.227 248.36C103.453 250.12 102.28 251.493 100.707 252.48C99.1601 253.467 97.4001 253.96 95.4268 253.96Z" fill="black"/>
<path d="M108.226 253.48V233.48H112.026V253.48H108.226ZM110.146 229.24C109.533 229.24 109 229.013 108.546 228.56C108.093 228.08 107.866 227.533 107.866 226.92C107.866 226.28 108.093 225.747 108.546 225.32C109 224.867 109.533 224.64 110.146 224.64C110.786 224.64 111.32 224.867 111.746 225.32C112.2 225.747 112.426 226.28 112.426 226.92C112.426 227.533 112.2 228.08 111.746 228.56C111.32 229.013 110.786 229.24 110.146 229.24Z" fill="black"/>
<path d="M126.436 253.96C124.489 253.96 122.769 253.52 121.276 252.64C119.782 251.733 118.609 250.493 117.756 248.92C116.902 247.347 116.476 245.533 116.476 243.48C116.476 241.427 116.902 239.613 117.756 238.04C118.609 236.467 119.782 235.24 121.276 234.36C122.796 233.453 124.529 233 126.476 233C128.316 233 129.929 233.467 131.316 234.4C132.702 235.307 133.782 236.613 134.556 238.32C135.356 240 135.756 241.987 135.756 244.28H119.596L120.316 243.68C120.316 245.093 120.596 246.32 121.156 247.36C121.716 248.4 122.476 249.2 123.436 249.76C124.396 250.293 125.489 250.56 126.716 250.56C128.049 250.56 129.156 250.253 130.036 249.64C130.942 249 131.649 248.2 132.156 247.24L135.436 248.76C134.902 249.8 134.209 250.72 133.356 251.52C132.502 252.293 131.489 252.893 130.316 253.32C129.169 253.747 127.876 253.96 126.436 253.96ZM120.556 241.88L119.796 241.28H132.436L131.716 241.88C131.716 240.707 131.476 239.707 130.996 238.88C130.516 238.027 129.876 237.387 129.076 236.96C128.276 236.507 127.382 236.28 126.396 236.28C125.436 236.28 124.502 236.507 123.596 236.96C122.716 237.387 121.982 238.013 121.396 238.84C120.836 239.667 120.556 240.68 120.556 241.88Z" fill="black"/>
<path d="M139.51 253.48V233.48H143.07L143.31 237.16V253.48H139.51ZM153.35 253.48V243.24H157.15V253.48H153.35ZM153.35 243.24C153.35 241.427 153.137 240.053 152.71 239.12C152.31 238.16 151.737 237.493 150.99 237.12C150.27 236.747 149.43 236.547 148.47 236.52C146.843 236.52 145.577 237.093 144.67 238.24C143.763 239.387 143.31 241 143.31 243.08H141.67C141.67 240.973 141.977 239.173 142.59 237.68C143.23 236.16 144.123 235 145.27 234.2C146.443 233.4 147.83 233 149.43 233C151.003 233 152.363 233.32 153.51 233.96C154.683 234.6 155.577 235.6 156.19 236.96C156.83 238.293 157.15 240.053 157.15 242.24V243.24H153.35Z" fill="black"/>
<path d="M171.052 253.96C169.052 253.96 167.278 253.52 165.732 252.64C164.185 251.733 162.972 250.493 162.092 248.92C161.238 247.347 160.812 245.533 160.812 243.48C160.812 241.427 161.238 239.613 162.092 238.04C162.972 236.467 164.172 235.24 165.692 234.36C167.238 233.453 168.998 233 170.972 233C172.918 233 174.665 233.453 176.212 234.36C177.785 235.267 178.958 236.56 179.732 238.24L176.292 239.68C175.785 238.693 175.052 237.92 174.092 237.36C173.158 236.8 172.078 236.52 170.852 236.52C169.652 236.52 168.585 236.813 167.652 237.4C166.718 237.987 165.985 238.813 165.452 239.88C164.918 240.92 164.652 242.12 164.652 243.48C164.652 244.84 164.918 246.04 165.452 247.08C165.985 248.12 166.732 248.947 167.692 249.56C168.652 250.147 169.732 250.44 170.932 250.44C172.158 250.44 173.252 250.133 174.212 249.52C175.172 248.88 175.892 248.027 176.372 246.96L179.852 248.36C179.078 250.12 177.905 251.493 176.332 252.48C174.785 253.467 173.025 253.96 171.052 253.96Z" fill="black"/>
<path d="M192.451 253.96C190.505 253.96 188.785 253.52 187.291 252.64C185.798 251.733 184.625 250.493 183.771 248.92C182.918 247.347 182.491 245.533 182.491 243.48C182.491 241.427 182.918 239.613 183.771 238.04C184.625 236.467 185.798 235.24 187.291 234.36C188.811 233.453 190.545 233 192.491 233C194.331 233 195.945 233.467 197.331 234.4C198.718 235.307 199.798 236.613 200.571 238.32C201.371 240 201.771 241.987 201.771 244.28H185.611L186.331 243.68C186.331 245.093 186.611 246.32 187.171 247.36C187.731 248.4 188.491 249.2 189.451 249.76C190.411 250.293 191.505 250.56 192.731 250.56C194.065 250.56 195.171 250.253 196.051 249.64C196.958 249 197.665 248.2 198.171 247.24L201.451 248.76C200.918 249.8 200.225 250.72 199.371 251.52C198.518 252.293 197.505 252.893 196.331 253.32C195.185 253.747 193.891 253.96 192.451 253.96ZM186.571 241.88L185.811 241.28H198.451L197.731 241.88C197.731 240.707 197.491 239.707 197.011 238.88C196.531 238.027 195.891 237.387 195.091 236.96C194.291 236.507 193.398 236.28 192.411 236.28C191.451 236.28 190.518 236.507 189.611 236.96C188.731 237.387 187.998 238.013 187.411 238.84C186.851 239.667 186.571 240.68 186.571 241.88Z" fill="black"/>
<path d="M226.691 254.08C224.531 254.08 222.624 253.64 220.971 252.76C219.344 251.853 218.078 250.6 217.171 249C216.264 247.373 215.811 245.507 215.811 243.4V225.48H219.731V243.4C219.731 244.787 220.024 246.013 220.611 247.08C221.224 248.147 222.051 248.973 223.091 249.56C224.158 250.147 225.384 250.44 226.771 250.44C228.158 250.44 229.384 250.147 230.451 249.56C231.518 248.973 232.344 248.147 232.931 247.08C233.518 246.013 233.811 244.787 233.811 243.4V225.48H237.771V243.4C237.771 245.507 237.304 247.373 236.371 249C235.464 250.6 234.171 251.853 232.491 252.76C230.838 253.64 228.904 254.08 226.691 254.08Z" fill="black"/>
<path d="M243.533 253.48V233.48H247.093L247.333 237.16V253.48H243.533ZM257.373 253.48V243.24H261.173V253.48H257.373ZM257.373 243.24C257.373 241.427 257.16 240.053 256.733 239.12C256.333 238.16 255.76 237.493 255.013 237.12C254.293 236.747 253.453 236.547 252.493 236.52C250.867 236.52 249.6 237.093 248.693 238.24C247.787 239.387 247.333 241 247.333 243.08H245.693C245.693 240.973 246 239.173 246.613 237.68C247.253 236.16 248.147 235 249.293 234.2C250.467 233.4 251.853 233 253.453 233C255.027 233 256.387 233.32 257.533 233.96C258.707 234.6 259.6 235.6 260.213 236.96C260.853 238.293 261.173 240.053 261.173 242.24V243.24H257.373Z" fill="black"/>
<path d="M280.595 253.48L280.435 249.76V225.48H284.195V253.48H280.595ZM273.875 253.96C272.062 253.96 270.475 253.52 269.115 252.64C267.782 251.76 266.729 250.533 265.955 248.96C265.209 247.387 264.835 245.56 264.835 243.48C264.835 241.373 265.209 239.547 265.955 238C266.729 236.427 267.782 235.2 269.115 234.32C270.475 233.44 272.062 233 273.875 233C275.555 233 277.009 233.44 278.235 234.32C279.489 235.2 280.449 236.427 281.115 238C281.782 239.547 282.115 241.373 282.115 243.48C282.115 245.56 281.782 247.387 281.115 248.96C280.449 250.533 279.489 251.76 278.235 252.64C277.009 253.52 275.555 253.96 273.875 253.96ZM274.755 250.52C275.875 250.52 276.862 250.227 277.715 249.64C278.569 249.027 279.235 248.2 279.715 247.16C280.195 246.093 280.435 244.867 280.435 243.48C280.435 242.093 280.195 240.88 279.715 239.84C279.235 238.773 278.569 237.947 277.715 237.36C276.862 236.747 275.862 236.44 274.715 236.44C273.542 236.44 272.502 236.747 271.595 237.36C270.689 237.947 269.982 238.773 269.475 239.84C268.969 240.88 268.715 242.093 268.715 243.48C268.715 244.867 268.969 246.093 269.475 247.16C270.009 248.2 270.729 249.027 271.635 249.64C272.542 250.227 273.582 250.52 274.755 250.52Z" fill="black"/>
<path d="M298.311 253.96C296.364 253.96 294.644 253.52 293.151 252.64C291.657 251.733 290.484 250.493 289.631 248.92C288.777 247.347 288.351 245.533 288.351 243.48C288.351 241.427 288.777 239.613 289.631 238.04C290.484 236.467 291.657 235.24 293.151 234.36C294.671 233.453 296.404 233 298.351 233C300.191 233 301.804 233.467 303.191 234.4C304.577 235.307 305.657 236.613 306.431 238.32C307.231 240 307.631 241.987 307.631 244.28H291.471L292.191 243.68C292.191 245.093 292.471 246.32 293.031 247.36C293.591 248.4 294.351 249.2 295.311 249.76C296.271 250.293 297.364 250.56 298.591 250.56C299.924 250.56 301.031 250.253 301.911 249.64C302.817 249 303.524 248.2 304.031 247.24L307.311 248.76C306.777 249.8 306.084 250.72 305.231 251.52C304.377 252.293 303.364 252.893 302.191 253.32C301.044 253.747 299.751 253.96 298.311 253.96ZM292.431 241.88L291.671 241.28H304.311L303.591 241.88C303.591 240.707 303.351 239.707 302.871 238.88C302.391 238.027 301.751 237.387 300.951 236.96C300.151 236.507 299.257 236.28 298.271 236.28C297.311 236.28 296.377 236.507 295.471 236.96C294.591 237.387 293.857 238.013 293.271 238.84C292.711 239.667 292.431 240.68 292.431 241.88Z" fill="black"/>
<path d="M313.705 242.72C313.705 240.56 314.118 238.8 314.945 237.44C315.772 236.08 316.838 235.067 318.145 234.4C319.452 233.733 320.825 233.4 322.265 233.4V237C321.065 237 319.918 237.187 318.825 237.56C317.758 237.907 316.878 238.493 316.185 239.32C315.518 240.12 315.185 241.213 315.185 242.6L313.705 242.72ZM311.385 253.48V233.48H315.185V253.48H311.385Z" fill="black"/>
<path d="M333.61 262C332.277 262 331.064 261.867 329.97 261.6C328.877 261.36 327.957 261.08 327.21 260.76C326.464 260.44 325.904 260.16 325.53 259.92L326.97 256.84C327.317 257.053 327.81 257.293 328.45 257.56C329.09 257.853 329.837 258.093 330.69 258.28C331.544 258.493 332.49 258.6 333.53 258.6C334.757 258.6 335.85 258.347 336.81 257.84C337.77 257.36 338.517 256.6 339.05 255.56C339.61 254.52 339.89 253.187 339.89 251.56V233.48H343.69V251.48C343.69 253.773 343.25 255.693 342.37 257.24C341.517 258.813 340.33 260 338.81 260.8C337.317 261.6 335.584 262 333.61 262ZM333.25 253.2C331.437 253.2 329.85 252.787 328.49 251.96C327.157 251.107 326.104 249.933 325.33 248.44C324.584 246.92 324.21 245.173 324.21 243.2C324.21 241.147 324.584 239.36 325.33 237.84C326.104 236.32 327.157 235.133 328.49 234.28C329.85 233.427 331.437 233 333.25 233C334.904 233 336.344 233.427 337.57 234.28C338.824 235.133 339.784 236.333 340.45 237.88C341.144 239.4 341.49 241.187 341.49 243.24C341.49 245.213 341.144 246.96 340.45 248.48C339.784 249.973 338.824 251.133 337.57 251.96C336.344 252.787 334.904 253.2 333.25 253.2ZM334.21 250C335.33 250 336.304 249.707 337.13 249.12C337.957 248.507 338.61 247.693 339.09 246.68C339.57 245.64 339.81 244.453 339.81 243.12C339.81 241.787 339.57 240.613 339.09 239.6C338.61 238.587 337.944 237.8 337.09 237.24C336.264 236.653 335.29 236.36 334.17 236.36C332.997 236.36 331.957 236.653 331.05 237.24C330.17 237.8 329.477 238.587 328.97 239.6C328.464 240.613 328.21 241.787 328.21 243.12C328.21 244.453 328.464 245.64 328.97 246.68C329.504 247.693 330.21 248.507 331.09 249.12C331.997 249.707 333.037 250 334.21 250Z" fill="black"/>
<path d="M351.283 242.72C351.283 240.56 351.696 238.8 352.523 237.44C353.35 236.08 354.416 235.067 355.723 234.4C357.03 233.733 358.403 233.4 359.843 233.4V237C358.643 237 357.496 237.187 356.403 237.56C355.336 237.907 354.456 238.493 353.763 239.32C353.096 240.12 352.763 241.213 352.763 242.6L351.283 242.72ZM348.963 253.48V233.48H352.763V253.48H348.963Z" fill="black"/>
<path d="M375.188 253.48L375.028 250V243.04C375.028 241.573 374.855 240.347 374.508 239.36C374.188 238.373 373.682 237.627 372.988 237.12C372.322 236.613 371.428 236.36 370.308 236.36C369.268 236.36 368.362 236.573 367.588 237C366.842 237.427 366.215 238.093 365.708 239L362.348 237.72C362.828 236.813 363.428 236.013 364.148 235.32C364.868 234.6 365.735 234.04 366.748 233.64C367.762 233.213 368.948 233 370.308 233C372.202 233 373.775 233.373 375.028 234.12C376.282 234.867 377.215 235.947 377.828 237.36C378.468 238.773 378.775 240.52 378.748 242.6L378.708 253.48H375.188ZM369.308 253.96C366.935 253.96 365.082 253.427 363.748 252.36C362.442 251.267 361.788 249.76 361.788 247.84C361.788 245.787 362.468 244.227 363.828 243.16C365.215 242.067 367.135 241.52 369.588 241.52H375.148V244.52H370.628C368.788 244.52 367.495 244.813 366.748 245.4C366.002 245.96 365.628 246.747 365.628 247.76C365.628 248.693 365.975 249.427 366.668 249.96C367.388 250.467 368.375 250.72 369.628 250.72C370.722 250.72 371.668 250.493 372.468 250.04C373.268 249.56 373.895 248.893 374.348 248.04C374.802 247.187 375.028 246.213 375.028 245.12H376.348C376.348 247.84 375.762 250 374.588 251.6C373.442 253.173 371.682 253.96 369.308 253.96Z" fill="black"/>
<path d="M398.173 253.48L398.013 249.76V225.48H401.773V253.48H398.173ZM391.453 253.96C389.64 253.96 388.053 253.52 386.693 252.64C385.36 251.76 384.307 250.533 383.533 248.96C382.787 247.387 382.413 245.56 382.413 243.48C382.413 241.373 382.787 239.547 383.533 238C384.307 236.427 385.36 235.2 386.693 234.32C388.053 233.44 389.64 233 391.453 233C393.133 233 394.587 233.44 395.813 234.32C397.067 235.2 398.027 236.427 398.693 238C399.36 239.547 399.693 241.373 399.693 243.48C399.693 245.56 399.36 247.387 398.693 248.96C398.027 250.533 397.067 251.76 395.813 252.64C394.587 253.52 393.133 253.96 391.453 253.96ZM392.333 250.52C393.453 250.52 394.44 250.227 395.293 249.64C396.147 249.027 396.813 248.2 397.293 247.16C397.773 246.093 398.013 244.867 398.013 243.48C398.013 242.093 397.773 240.88 397.293 239.84C396.813 238.773 396.147 237.947 395.293 237.36C394.44 236.747 393.44 236.44 392.293 236.44C391.12 236.44 390.08 236.747 389.173 237.36C388.267 237.947 387.56 238.773 387.053 239.84C386.547 240.88 386.293 242.093 386.293 243.48C386.293 244.867 386.547 246.093 387.053 247.16C387.587 248.2 388.307 249.027 389.213 249.64C390.12 250.227 391.16 250.52 392.333 250.52Z" fill="black"/>
<path d="M420.649 253.48L420.409 249.8V233.48H424.169V253.48H420.649ZM406.569 243.72V233.48H410.369V243.72H406.569ZM410.369 243.72C410.369 245.507 410.569 246.88 410.969 247.84C411.396 248.8 411.982 249.467 412.729 249.84C413.476 250.213 414.316 250.413 415.249 250.44C416.876 250.44 418.142 249.867 419.049 248.72C419.956 247.573 420.409 245.96 420.409 243.88H422.049C422.049 245.987 421.729 247.8 421.089 249.32C420.476 250.813 419.596 251.96 418.449 252.76C417.302 253.56 415.902 253.96 414.249 253.96C412.702 253.96 411.342 253.64 410.169 253C409.022 252.36 408.129 251.36 407.489 250C406.876 248.64 406.569 246.88 406.569 244.72V243.72H410.369Z" fill="black"/>
<path d="M441.751 253.48L441.591 250V243.04C441.591 241.573 441.417 240.347 441.071 239.36C440.751 238.373 440.244 237.627 439.551 237.12C438.884 236.613 437.991 236.36 436.871 236.36C435.831 236.36 434.924 236.573 434.151 237C433.404 237.427 432.777 238.093 432.271 239L428.911 237.72C429.391 236.813 429.991 236.013 430.711 235.32C431.431 234.6 432.297 234.04 433.311 233.64C434.324 233.213 435.511 233 436.871 233C438.764 233 440.337 233.373 441.591 234.12C442.844 234.867 443.777 235.947 444.391 237.36C445.031 238.773 445.337 240.52 445.311 242.6L445.271 253.48H441.751ZM435.871 253.96C433.497 253.96 431.644 253.427 430.311 252.36C429.004 251.267 428.351 249.76 428.351 247.84C428.351 245.787 429.031 244.227 430.391 243.16C431.777 242.067 433.697 241.52 436.151 241.52H441.711V244.52H437.191C435.351 244.52 434.057 244.813 433.311 245.4C432.564 245.96 432.191 246.747 432.191 247.76C432.191 248.693 432.537 249.427 433.231 249.96C433.951 250.467 434.937 250.72 436.191 250.72C437.284 250.72 438.231 250.493 439.031 250.04C439.831 249.56 440.457 248.893 440.911 248.04C441.364 247.187 441.591 246.213 441.591 245.12H442.911C442.911 247.84 442.324 250 441.151 251.6C440.004 253.173 438.244 253.96 435.871 253.96Z" fill="black"/>
<path d="M457.816 253.96C455.816 253.96 454.269 253.453 453.176 252.44C452.082 251.4 451.536 249.92 451.536 248V227.24H455.336V247.44C455.336 248.427 455.576 249.187 456.056 249.72C456.562 250.227 457.282 250.48 458.216 250.48C458.482 250.48 458.776 250.427 459.096 250.32C459.416 250.213 459.802 250 460.256 249.68L461.696 252.64C461.002 253.093 460.336 253.427 459.696 253.64C459.082 253.853 458.456 253.96 457.816 253.96ZM448.136 236.76V233.48H461.016V236.76H448.136Z" fill="black"/>
<path d="M474.131 253.96C472.184 253.96 470.464 253.52 468.971 252.64C467.478 251.733 466.304 250.493 465.451 248.92C464.598 247.347 464.171 245.533 464.171 243.48C464.171 241.427 464.598 239.613 465.451 238.04C466.304 236.467 467.478 235.24 468.971 234.36C470.491 233.453 472.224 233 474.171 233C476.011 233 477.624 233.467 479.011 234.4C480.398 235.307 481.478 236.613 482.251 238.32C483.051 240 483.451 241.987 483.451 244.28H467.291L468.011 243.68C468.011 245.093 468.291 246.32 468.851 247.36C469.411 248.4 470.171 249.2 471.131 249.76C472.091 250.293 473.184 250.56 474.411 250.56C475.744 250.56 476.851 250.253 477.731 249.64C478.638 249 479.344 248.2 479.851 247.24L483.131 248.76C482.598 249.8 481.904 250.72 481.051 251.52C480.198 252.293 479.184 252.893 478.011 253.32C476.864 253.747 475.571 253.96 474.131 253.96ZM468.251 241.88L467.491 241.28H480.131L479.411 241.88C479.411 240.707 479.171 239.707 478.691 238.88C478.211 238.027 477.571 237.387 476.771 236.96C475.971 236.507 475.078 236.28 474.091 236.28C473.131 236.28 472.198 236.507 471.291 236.96C470.411 237.387 469.678 238.013 469.091 238.84C468.531 239.667 468.251 240.68 468.251 241.88Z" fill="black"/>
<path d="M506.931 253.96C505.437 253.96 504.077 253.787 502.851 253.44C501.651 253.093 500.597 252.627 499.691 252.04C498.811 251.427 498.077 250.747 497.491 250C496.904 249.253 496.491 248.467 496.251 247.64L500.051 246.4C500.451 247.493 501.211 248.44 502.331 249.24C503.451 250.04 504.824 250.453 506.451 250.48C508.424 250.48 509.971 250.093 511.091 249.32C512.237 248.52 512.811 247.467 512.811 246.16C512.811 244.96 512.317 243.987 511.331 243.24C510.344 242.467 509.037 241.88 507.411 241.48L504.171 240.64C502.891 240.293 501.717 239.8 500.651 239.16C499.611 238.52 498.784 237.707 498.171 236.72C497.557 235.733 497.251 234.547 497.251 233.16C497.251 230.6 498.077 228.6 499.731 227.16C501.411 225.72 503.824 225 506.971 225C508.784 225 510.357 225.293 511.691 225.88C513.024 226.44 514.117 227.187 514.971 228.12C515.851 229.053 516.477 230.08 516.851 231.2L513.051 232.48C512.598 231.28 511.824 230.32 510.731 229.6C509.637 228.853 508.291 228.48 506.691 228.48C505.011 228.48 503.677 228.88 502.691 229.68C501.731 230.48 501.251 231.573 501.251 232.96C501.251 234.133 501.624 235.04 502.371 235.68C503.144 236.293 504.171 236.76 505.451 237.08L508.691 237.88C511.304 238.52 513.318 239.587 514.731 241.08C516.171 242.547 516.891 244.16 516.891 245.92C516.891 247.44 516.504 248.813 515.731 250.04C514.984 251.24 513.864 252.2 512.371 252.92C510.904 253.613 509.091 253.96 506.931 253.96Z" fill="black"/>
<path d="M530.503 253.96C528.503 253.96 526.743 253.52 525.223 252.64C523.703 251.733 522.503 250.493 521.623 248.92C520.77 247.347 520.343 245.533 520.343 243.48C520.343 241.427 520.77 239.613 521.623 238.04C522.476 236.467 523.663 235.24 525.183 234.36C526.703 233.453 528.45 233 530.423 233C532.396 233 534.143 233.453 535.663 234.36C537.183 235.24 538.37 236.467 539.223 238.04C540.076 239.613 540.503 241.427 540.503 243.48C540.503 245.533 540.076 247.347 539.223 248.92C538.37 250.493 537.183 251.733 535.663 252.64C534.17 253.52 532.45 253.96 530.503 253.96ZM530.503 250.48C531.703 250.48 532.77 250.187 533.703 249.6C534.636 248.987 535.356 248.16 535.863 247.12C536.396 246.08 536.663 244.867 536.663 243.48C536.663 242.093 536.396 240.88 535.863 239.84C535.356 238.8 534.623 237.987 533.663 237.4C532.703 236.787 531.623 236.48 530.423 236.48C529.196 236.48 528.116 236.787 527.183 237.4C526.25 237.987 525.516 238.8 524.983 239.84C524.45 240.88 524.183 242.093 524.183 243.48C524.183 244.867 524.45 246.08 524.983 247.12C525.516 248.16 526.263 248.987 527.223 249.6C528.183 250.187 529.276 250.48 530.503 250.48Z" fill="black"/>
<path d="M553.786 253.96C551.786 253.96 550.013 253.52 548.466 252.64C546.92 251.733 545.706 250.493 544.826 248.92C543.973 247.347 543.546 245.533 543.546 243.48C543.546 241.427 543.973 239.613 544.826 238.04C545.706 236.467 546.906 235.24 548.426 234.36C549.973 233.453 551.733 233 553.706 233C555.653 233 557.4 233.453 558.946 234.36C560.52 235.267 561.693 236.56 562.466 238.24L559.026 239.68C558.52 238.693 557.786 237.92 556.826 237.36C555.893 236.8 554.813 236.52 553.586 236.52C552.386 236.52 551.32 236.813 550.386 237.4C549.453 237.987 548.719 238.813 548.186 239.88C547.653 240.92 547.386 242.12 547.386 243.48C547.386 244.84 547.653 246.04 548.186 247.08C548.719 248.12 549.466 248.947 550.426 249.56C551.386 250.147 552.466 250.44 553.666 250.44C554.893 250.44 555.986 250.133 556.946 249.52C557.906 248.88 558.626 248.027 559.106 246.96L562.586 248.36C561.813 250.12 560.639 251.493 559.066 252.48C557.519 253.467 555.759 253.96 553.786 253.96Z" fill="black"/>
<path d="M566.586 253.48V233.48H570.386V253.48H566.586ZM568.506 229.24C567.893 229.24 567.359 229.013 566.906 228.56C566.452 228.08 566.226 227.533 566.226 226.92C566.226 226.28 566.452 225.747 566.906 225.32C567.359 224.867 567.893 224.64 568.506 224.64C569.146 224.64 569.679 224.867 570.106 225.32C570.559 225.747 570.786 226.28 570.786 226.92C570.786 227.533 570.559 228.08 570.106 228.56C569.679 229.013 569.146 229.24 568.506 229.24Z" fill="black"/>
<path d="M584.795 253.96C582.849 253.96 581.129 253.52 579.635 252.64C578.142 251.733 576.969 250.493 576.115 248.92C575.262 247.347 574.835 245.533 574.835 243.48C574.835 241.427 575.262 239.613 576.115 238.04C576.969 236.467 578.142 235.24 579.635 234.36C581.155 233.453 582.889 233 584.835 233C586.675 233 588.289 233.467 589.675 234.4C591.062 235.307 592.142 236.613 592.915 238.32C593.715 240 594.115 241.987 594.115 244.28H577.955L578.675 243.68C578.675 245.093 578.955 246.32 579.515 247.36C580.075 248.4 580.835 249.2 581.795 249.76C582.755 250.293 583.849 250.56 585.075 250.56C586.409 250.56 587.515 250.253 588.395 249.64C589.302 249 590.009 248.2 590.515 247.24L593.795 248.76C593.262 249.8 592.569 250.72 591.715 251.52C590.862 252.293 589.849 252.893 588.675 253.32C587.529 253.747 586.235 253.96 584.795 253.96ZM578.915 241.88L578.155 241.28H590.795L590.075 241.88C590.075 240.707 589.835 239.707 589.355 238.88C588.875 238.027 588.235 237.387 587.435 236.96C586.635 236.507 585.742 236.28 584.755 236.28C583.795 236.28 582.862 236.507 581.955 236.96C581.075 237.387 580.342 238.013 579.755 238.84C579.195 239.667 578.915 240.68 578.915 241.88Z" fill="black"/>
<path d="M605.589 253.96C603.589 253.96 602.043 253.453 600.949 252.44C599.856 251.4 599.309 249.92 599.309 248V227.24H603.109V247.44C603.109 248.427 603.349 249.187 603.829 249.72C604.336 250.227 605.056 250.48 605.989 250.48C606.256 250.48 606.549 250.427 606.869 250.32C607.189 250.213 607.576 250 608.029 249.68L609.469 252.64C608.776 253.093 608.109 253.427 607.469 253.64C606.856 253.853 606.229 253.96 605.589 253.96ZM595.909 236.76V233.48H608.789V236.76H595.909Z" fill="black"/>
<path d="M615.661 261.96C615.074 261.96 614.421 261.853 613.701 261.64C613.008 261.427 612.287 261.147 611.541 260.8L612.941 257.68C613.528 257.947 614.034 258.147 614.461 258.28C614.914 258.413 615.274 258.48 615.541 258.48C616.207 258.48 616.767 258.293 617.221 257.92C617.701 257.547 618.088 257.027 618.381 256.36L620.701 250.88L627.821 233.48H631.901L622.421 255.96C621.914 257.187 621.381 258.253 620.821 259.16C620.261 260.067 619.568 260.76 618.741 261.24C617.941 261.72 616.914 261.96 615.661 261.96ZM619.661 253.48L610.901 233.48H614.941L622.181 250.84L623.341 253.48H619.661Z" fill="black"/>
<path d="M190.226 298.08C188.066 298.08 186.16 297.64 184.506 296.76C182.88 295.853 181.613 294.6 180.706 293C179.8 291.373 179.346 289.507 179.346 287.4V269.48H183.266V287.4C183.266 288.787 183.56 290.013 184.146 291.08C184.76 292.147 185.586 292.973 186.626 293.56C187.693 294.147 188.92 294.44 190.306 294.44C191.693 294.44 192.92 294.147 193.986 293.56C195.053 292.973 195.88 292.147 196.466 291.08C197.053 290.013 197.346 288.787 197.346 287.4V269.48H201.306V287.4C201.306 289.507 200.84 291.373 199.906 293C199 294.6 197.706 295.853 196.026 296.76C194.373 297.64 192.44 298.08 190.226 298.08Z" fill="black"/>
<path d="M207.988 297.48V269.48H216.988C218.908 269.48 220.548 269.773 221.908 270.36C223.295 270.947 224.362 271.813 225.108 272.96C225.882 274.107 226.268 275.52 226.268 277.2C226.268 278.48 225.962 279.627 225.348 280.64C224.762 281.627 223.935 282.44 222.868 283.08C224.255 283.747 225.308 284.64 226.028 285.76C226.775 286.88 227.148 288.213 227.148 289.76C227.148 291.387 226.775 292.787 226.028 293.96C225.308 295.107 224.282 295.987 222.948 296.6C221.615 297.187 220.015 297.48 218.148 297.48H207.988ZM211.868 293.92H217.908C219.562 293.92 220.842 293.533 221.748 292.76C222.682 291.96 223.148 290.893 223.148 289.56C223.148 288.067 222.615 286.92 221.548 286.12C220.508 285.293 219.042 284.88 217.148 284.88H211.868V293.92ZM211.868 281.52H217.628C219.068 281.52 220.202 281.133 221.028 280.36C221.882 279.587 222.308 278.52 222.308 277.16C222.308 275.747 221.828 274.667 220.868 273.92C219.908 273.147 218.562 272.76 216.828 272.76H211.868V281.52Z" fill="black"/>
<path d="M244.362 297.96C241.695 297.96 239.322 297.347 237.242 296.12C235.162 294.867 233.535 293.16 232.362 291C231.188 288.813 230.602 286.307 230.602 283.48C230.602 280.653 231.188 278.16 232.362 276C233.535 273.813 235.148 272.107 237.202 270.88C239.255 269.627 241.615 269 244.282 269C246.015 269 247.668 269.32 249.242 269.96C250.815 270.573 252.215 271.44 253.442 272.56C254.695 273.653 255.655 274.933 256.322 276.4L252.802 278C252.295 276.907 251.602 275.96 250.722 275.16C249.842 274.36 248.842 273.733 247.722 273.28C246.628 272.827 245.482 272.6 244.282 272.6C242.415 272.6 240.748 273.067 239.282 274C237.815 274.933 236.668 276.213 235.842 277.84C235.015 279.467 234.602 281.347 234.602 283.48C234.602 285.613 235.015 287.507 235.842 289.16C236.695 290.813 237.855 292.107 239.322 293.04C240.815 293.947 242.508 294.4 244.402 294.4C245.628 294.4 246.788 294.16 247.882 293.68C248.975 293.173 249.948 292.493 250.802 291.64C251.682 290.76 252.388 289.76 252.922 288.64L256.442 290.2C255.775 291.72 254.828 293.067 253.602 294.24C252.375 295.413 250.962 296.333 249.362 297C247.788 297.64 246.122 297.96 244.362 297.96Z" fill="black"/>
<path d="M279.754 297.48L290.994 269.48H295.194L283.714 297.48H279.754ZM279.354 297.48L267.874 269.48H272.074L283.274 297.48H279.354Z" fill="black"/>
<path d="M308.88 297.48L308.72 294V287.04C308.72 285.573 308.546 284.347 308.2 283.36C307.88 282.373 307.373 281.627 306.68 281.12C306.013 280.613 305.12 280.36 304 280.36C302.96 280.36 302.053 280.573 301.28 281C300.533 281.427 299.906 282.093 299.4 283L296.04 281.72C296.52 280.813 297.12 280.013 297.84 279.32C298.56 278.6 299.426 278.04 300.44 277.64C301.453 277.213 302.64 277 304 277C305.893 277 307.466 277.373 308.72 278.12C309.973 278.867 310.906 279.947 311.52 281.36C312.16 282.773 312.466 284.52 312.44 286.6L312.4 297.48H308.88ZM303 297.96C300.626 297.96 298.773 297.427 297.44 296.36C296.133 295.267 295.48 293.76 295.48 291.84C295.48 289.787 296.16 288.227 297.52 287.16C298.906 286.067 300.826 285.52 303.28 285.52H308.84V288.52H304.32C302.48 288.52 301.186 288.813 300.44 289.4C299.693 289.96 299.32 290.747 299.32 291.76C299.32 292.693 299.666 293.427 300.36 293.96C301.08 294.467 302.066 294.72 303.32 294.72C304.413 294.72 305.36 294.493 306.16 294.04C306.96 293.56 307.586 292.893 308.04 292.04C308.493 291.187 308.72 290.213 308.72 289.12H310.04C310.04 291.84 309.453 294 308.28 295.6C307.133 297.173 305.373 297.96 303 297.96Z" fill="black"/>
<path d="M317.225 297.48V277.48H320.785L321.025 281.16V297.48H317.225ZM331.065 297.48V287.24H334.865V297.48H331.065ZM331.065 287.24C331.065 285.427 330.851 284.053 330.425 283.12C330.025 282.16 329.451 281.493 328.705 281.12C327.985 280.747 327.145 280.547 326.185 280.52C324.558 280.52 323.291 281.093 322.385 282.24C321.478 283.387 321.025 285 321.025 287.08H319.385C319.385 284.973 319.691 283.173 320.305 281.68C320.945 280.16 321.838 279 322.985 278.2C324.158 277.4 325.545 277 327.145 277C328.718 277 330.078 277.32 331.225 277.96C332.398 278.6 333.291 279.6 333.905 280.96C334.545 282.293 334.865 284.053 334.865 286.24V287.24H331.065Z" fill="black"/>
<path d="M348.767 297.96C346.767 297.96 344.993 297.52 343.447 296.64C341.9 295.733 340.687 294.493 339.807 292.92C338.953 291.347 338.527 289.533 338.527 287.48C338.527 285.427 338.953 283.613 339.807 282.04C340.687 280.467 341.887 279.24 343.407 278.36C344.953 277.453 346.713 277 348.687 277C350.633 277 352.38 277.453 353.927 278.36C355.5 279.267 356.673 280.56 357.447 282.24L354.007 283.68C353.5 282.693 352.767 281.92 351.807 281.36C350.873 280.8 349.793 280.52 348.567 280.52C347.367 280.52 346.3 280.813 345.367 281.4C344.433 281.987 343.7 282.813 343.167 283.88C342.633 284.92 342.367 286.12 342.367 287.48C342.367 288.84 342.633 290.04 343.167 291.08C343.7 292.12 344.447 292.947 345.407 293.56C346.367 294.147 347.447 294.44 348.647 294.44C349.873 294.44 350.967 294.133 351.927 293.52C352.887 292.88 353.607 292.027 354.087 290.96L357.567 292.36C356.793 294.12 355.62 295.493 354.047 296.48C352.5 297.467 350.74 297.96 348.767 297.96Z" fill="black"/>
<path d="M370.366 297.96C368.366 297.96 366.606 297.52 365.086 296.64C363.566 295.733 362.366 294.493 361.486 292.92C360.633 291.347 360.206 289.533 360.206 287.48C360.206 285.427 360.633 283.613 361.486 282.04C362.34 280.467 363.526 279.24 365.046 278.36C366.566 277.453 368.313 277 370.286 277C372.26 277 374.006 277.453 375.526 278.36C377.046 279.24 378.233 280.467 379.086 282.04C379.94 283.613 380.366 285.427 380.366 287.48C380.366 289.533 379.94 291.347 379.086 292.92C378.233 294.493 377.046 295.733 375.526 296.64C374.033 297.52 372.313 297.96 370.366 297.96ZM370.366 294.48C371.566 294.48 372.633 294.187 373.566 293.6C374.5 292.987 375.22 292.16 375.726 291.12C376.26 290.08 376.526 288.867 376.526 287.48C376.526 286.093 376.26 284.88 375.726 283.84C375.22 282.8 374.486 281.987 373.526 281.4C372.566 280.787 371.486 280.48 370.286 280.48C369.06 280.48 367.98 280.787 367.046 281.4C366.113 281.987 365.38 282.8 364.846 283.84C364.313 284.88 364.046 286.093 364.046 287.48C364.046 288.867 364.313 290.08 364.846 291.12C365.38 292.16 366.126 292.987 367.086 293.6C368.046 294.187 369.14 294.48 370.366 294.48Z" fill="black"/>
<path d="M398.129 297.48L397.889 293.8V277.48H401.649V297.48H398.129ZM384.049 287.72V277.48H387.849V287.72H384.049ZM387.849 287.72C387.849 289.507 388.049 290.88 388.449 291.84C388.876 292.8 389.463 293.467 390.209 293.84C390.956 294.213 391.796 294.413 392.729 294.44C394.356 294.44 395.623 293.867 396.529 292.72C397.436 291.573 397.889 289.96 397.889 287.88H399.529C399.529 289.987 399.209 291.8 398.569 293.32C397.956 294.813 397.076 295.96 395.929 296.76C394.783 297.56 393.383 297.96 391.729 297.96C390.183 297.96 388.823 297.64 387.649 297C386.503 296.36 385.609 295.36 384.969 294C384.356 292.64 384.049 290.88 384.049 288.72V287.72H387.849Z" fill="black"/>
<path d="M413.231 297.48L421.231 277.48H425.191L416.831 297.48H413.231ZM412.991 297.48L404.671 277.48H408.551L416.551 297.48H412.991Z" fill="black"/>
<path d="M436.494 297.96C434.548 297.96 432.828 297.52 431.334 296.64C429.841 295.733 428.668 294.493 427.814 292.92C426.961 291.347 426.534 289.533 426.534 287.48C426.534 285.427 426.961 283.613 427.814 282.04C428.668 280.467 429.841 279.24 431.334 278.36C432.854 277.453 434.588 277 436.534 277C438.374 277 439.988 277.467 441.374 278.4C442.761 279.307 443.841 280.613 444.614 282.32C445.414 284 445.814 285.987 445.814 288.28H429.654L430.374 287.68C430.374 289.093 430.654 290.32 431.214 291.36C431.774 292.4 432.534 293.2 433.494 293.76C434.454 294.293 435.548 294.56 436.774 294.56C438.108 294.56 439.214 294.253 440.094 293.64C441.001 293 441.708 292.2 442.214 291.24L445.494 292.76C444.961 293.8 444.268 294.72 443.414 295.52C442.561 296.293 441.548 296.893 440.374 297.32C439.228 297.747 437.934 297.96 436.494 297.96ZM430.614 285.88L429.854 285.28H442.494L441.774 285.88C441.774 284.707 441.534 283.707 441.054 282.88C440.574 282.027 439.934 281.387 439.134 280.96C438.334 280.507 437.441 280.28 436.454 280.28C435.494 280.28 434.561 280.507 433.654 280.96C432.774 281.387 432.041 282.013 431.454 282.84C430.894 283.667 430.614 284.68 430.614 285.88Z" fill="black"/>
<path d="M451.888 286.72C451.888 284.56 452.302 282.8 453.128 281.44C453.955 280.08 455.022 279.067 456.328 278.4C457.635 277.733 459.008 277.4 460.448 277.4V281C459.248 281 458.102 281.187 457.008 281.56C455.942 281.907 455.062 282.493 454.368 283.32C453.702 284.12 453.368 285.213 453.368 286.6L451.888 286.72ZM449.568 297.48V277.48H453.368V297.48H449.568Z" fill="black"/>
<path d="M283.335 28.96C281.842 28.96 280.482 28.7867 279.255 28.44C278.055 28.0933 277.002 27.6267 276.095 27.04C275.215 26.4267 274.482 25.7467 273.895 25C273.308 24.2533 272.895 23.4667 272.655 22.64L276.455 21.4C276.855 22.4933 277.615 23.44 278.735 24.24C279.855 25.04 281.228 25.4533 282.855 25.48C284.828 25.48 286.375 25.0933 287.495 24.32C288.642 23.52 289.215 22.4667 289.215 21.16C289.215 19.96 288.722 18.9867 287.735 18.24C286.748 17.4667 285.442 16.88 283.815 16.48L280.575 15.64C279.295 15.2933 278.122 14.8 277.055 14.16C276.015 13.52 275.188 12.7067 274.575 11.72C273.962 10.7333 273.655 9.54667 273.655 8.16C273.655 5.6 274.482 3.6 276.135 2.16C277.815 0.719999 280.228 0 283.375 0C285.188 0 286.762 0.293333 288.095 0.879998C289.428 1.44 290.522 2.18667 291.375 3.12C292.255 4.05333 292.882 5.08 293.255 6.2L289.455 7.48C289.002 6.28 288.228 5.32 287.135 4.6C286.042 3.85333 284.695 3.48 283.095 3.48C281.415 3.48 280.082 3.88 279.095 4.68C278.135 5.48 277.655 6.57333 277.655 7.96C277.655 9.13333 278.028 10.04 278.775 10.68C279.548 11.2933 280.575 11.76 281.855 12.08L285.095 12.88C287.708 13.52 289.722 14.5867 291.135 16.08C292.575 17.5467 293.295 19.16 293.295 20.92C293.295 22.44 292.908 23.8133 292.135 25.04C291.388 26.24 290.268 27.2 288.775 27.92C287.308 28.6133 285.495 28.96 283.335 28.96Z" fill="black"/>
<path d="M297.907 28.48V0.479999H301.667V28.48H297.907ZM311.747 28.48V18.24H315.507V28.48H311.747ZM311.747 18.24C311.747 16.4267 311.534 15.0533 311.107 14.12C310.681 13.16 310.094 12.4933 309.347 12.12C308.627 11.7467 307.801 11.5467 306.867 11.52C305.214 11.52 303.934 12.0933 303.027 13.24C302.121 14.3867 301.667 16 301.667 18.08H300.067C300.067 15.9733 300.374 14.1733 300.987 12.68C301.627 11.16 302.521 10 303.667 9.2C304.841 8.4 306.227 8 307.827 8C309.401 8 310.761 8.32 311.907 8.96C313.054 9.6 313.947 10.6 314.587 11.96C315.227 13.2933 315.534 15.0533 315.507 17.24V18.24H311.747Z" fill="black"/>
<path d="M329.329 28.96C327.329 28.96 325.569 28.52 324.049 27.64C322.529 26.7333 321.329 25.4933 320.449 23.92C319.596 22.3467 319.169 20.5333 319.169 18.48C319.169 16.4267 319.596 14.6133 320.449 13.04C321.302 11.4667 322.489 10.24 324.009 9.36C325.529 8.45333 327.276 8 329.249 8C331.222 8 332.969 8.45333 334.489 9.36C336.009 10.24 337.196 11.4667 338.049 13.04C338.902 14.6133 339.329 16.4267 339.329 18.48C339.329 20.5333 338.902 22.3467 338.049 23.92C337.196 25.4933 336.009 26.7333 334.489 27.64C332.996 28.52 331.276 28.96 329.329 28.96ZM329.329 25.48C330.529 25.48 331.596 25.1867 332.529 24.6C333.462 23.9867 334.182 23.16 334.689 22.12C335.222 21.08 335.489 19.8667 335.489 18.48C335.489 17.0933 335.222 15.88 334.689 14.84C334.182 13.8 333.449 12.9867 332.489 12.4C331.529 11.7867 330.449 11.48 329.249 11.48C328.022 11.48 326.942 11.7867 326.009 12.4C325.076 12.9867 324.342 13.8 323.809 14.84C323.276 15.88 323.009 17.0933 323.009 18.48C323.009 19.8667 323.276 21.08 323.809 22.12C324.342 23.16 325.089 23.9867 326.049 24.6C327.009 25.1867 328.102 25.48 329.329 25.48Z" fill="black"/>
<path d="M343.692 36.48V8.48H347.252L347.492 12.16V36.48H343.692ZM354.052 28.96C352.372 28.96 350.906 28.52 349.652 27.64C348.426 26.76 347.479 25.5333 346.812 23.96C346.146 22.3867 345.812 20.56 345.812 18.48C345.812 16.3733 346.146 14.5467 346.812 13C347.479 11.4267 348.426 10.2 349.652 9.32C350.906 8.44 352.372 8 354.052 8C355.839 8 357.412 8.44 358.772 9.32C360.132 10.2 361.186 11.4267 361.932 13C362.706 14.5467 363.092 16.3733 363.092 18.48C363.092 20.56 362.706 22.3867 361.932 23.96C361.186 25.5333 360.132 26.76 358.772 27.64C357.412 28.52 355.839 28.96 354.052 28.96ZM353.132 25.52C354.332 25.52 355.386 25.2267 356.292 24.64C357.199 24.0267 357.906 23.2 358.412 22.16C358.946 21.0933 359.212 19.8667 359.212 18.48C359.212 17.0933 358.959 15.88 358.452 14.84C357.946 13.7733 357.239 12.9467 356.332 12.36C355.426 11.7467 354.372 11.44 353.172 11.44C352.079 11.44 351.092 11.7467 350.212 12.36C349.359 12.9467 348.692 13.7733 348.212 14.84C347.732 15.9067 347.492 17.12 347.492 18.48C347.492 19.8667 347.732 21.0933 348.212 22.16C348.692 23.2 349.359 24.0267 350.212 24.64C351.066 25.2267 352.039 25.52 353.132 25.52Z" fill="black"/>
</svg>
